<svg id="Layer_1" enable-background="new 0 0 512 512" height="512" viewBox="0 0 512 512" width="512" xmlns="http://www.w3.org/2000/svg"><path d="m432 0c-18.062 0-333.823 0-352 0-26.467 0-48 21.533-48 48v416c0 26.467 21.533 48 48 48h352c26.467 0 48-21.533 48-48v-416c0-26.467-21.533-48-48-48zm-112 32v16c0 8.822-7.178 16-16 16h-96c-8.822 0-16-7.178-16-16v-16zm16 448c0-8.836-7.164-16-16-16s-16 7.164-16 16h-32c0-8.836-7.164-16-16-16s-16 7.164-16 16h-32c0-8.836-7.164-16-16-16s-16 7.164-16 16h-27.508l8-32h199.016l8 32zm112-16c0 8.822-7.178 16-16 16h-35.507l-12.97-51.88c-1.781-7.123-8.181-12.12-15.523-12.12h-224c-7.342 0-13.742 4.997-15.522 12.12l-12.971 51.88h-35.507c-8.822 0-16-7.178-16-16v-416c0-8.822 7.178-16 16-16h80v16c0 26.467 21.533 48 48 48h96c26.467 0 48-21.533 48-48v-16h80c8.822 0 16 7.178 16 16z"/><path d="m192 248c0-14.812-8.093-27.77-20.089-34.683-5.631-6.274-11.934-5.317-19.911-5.317-4.411 0-8-3.589-8-8s3.589-8 8-8h24c8.836 0 16-7.164 16-16s-7.164-16-16-16h-24c-22.056 0-40 17.944-40 40s17.944 40 40 40c4.411 0 8 3.589 8 8s-3.589 8-8 8h-24c-8.836 0-16 7.164-16 16s7.164 16 16 16h24c22.056 0 40-17.944 40-40z"/><path d="m256 256h-31c-8.836 0-16 7.164-16 16s7.164 16 16 16h31c22.056 0 40-17.944 40-40s-17.944-40-40-40h-7c-4.411 0-8-3.589-8-8s3.589-8 8-8h31c8.836 0 16-7.164 16-16s-7.164-16-16-16h-31c-22.056 0-40 17.944-40 40 0 22.517 18.746 40 39 40h8c4.411 0 8 3.589 8 8s-3.589 8-8 8z"/><path d="m400 240v-32c0-26.467-21.533-48-48-48h-16c-8.836 0-16 7.164-16 16v96c0 8.836 7.164 16 16 16h16c26.467 0 48-21.533 48-48zm-32 0c0 8.822-7.178 16-16 16v-64c8.822 0 16 7.178 16 16z"/><circle cx="400" cy="384" r="16"/><circle cx="112" cy="384" r="16"/><circle cx="400" cy="80" r="16"/><circle cx="112" cy="80" r="16"/><path d="m320 336h-128c-8.836 0-16 7.164-16 16s7.164 16 16 16h128c8.836 0 16-7.164 16-16s-7.164-16-16-16z"/></svg>