<svg id="Layer_1" enable-background="new 0 0 512 512" height="512" viewBox="0 0 512 512" width="512" xmlns="http://www.w3.org/2000/svg"><path d="m368 0h-224c-26.468 0-48 21.533-48 48v416c0 26.467 21.532 48 48 48h224c26.468 0 48-21.533 48-48v-416c0-26.467-21.532-48-48-48zm16 464c0 8.822-7.178 16-16 16h-224c-8.822 0-16-7.178-16-16v-416c0-8.822 7.178-16 16-16h224c8.822 0 16 7.178 16 16z"/><path d="m336 64h-160c-8.837 0-16 7.164-16 16v64c0 8.836 7.163 16 16 16h160c8.837 0 16-7.164 16-16v-64c0-8.836-7.163-16-16-16zm-16 64h-128v-32h128z"/><path d="m336 192h-160c-8.837 0-16 7.164-16 16v64c0 8.836 7.163 16 16 16h160c8.837 0 16-7.164 16-16v-64c0-8.836-7.163-16-16-16zm-16 64h-128v-32h128z"/><path d="m256 384c-17.645 0-32 14.355-32 32s14.355 32 32 32 32-14.355 32-32-14.355-32-32-32z"/><path d="m272 352v-16c0-8.836-7.163-16-16-16s-16 7.164-16 16v16c0 8.836 7.163 16 16 16s16-7.164 16-16z"/></svg>